<svg version="1.1" xmlns="http://www.w3.org/2000/svg" viewBox="0 0 93.19664924872154 90.29189670381015" width="93.19664924872154" height="90.29189670381015">
  <!-- svg-source:excalidraw -->
  
  <defs>
    <style class="style-fonts">
      @font-face {
        font-family: "Virgil";
        src: url("https://excalidraw.com/Virgil.woff2");
      }
      @font-face {
        font-family: "Cascadia";
        src: url("https://excalidraw.com/Cascadia.woff2");
      }
    </style>
  </defs>
  <g stroke-linecap="round" transform="translate(10 10) rotate(0 36.59832462436077 35.145948351905076)"><path d="M73.2 35.15 C73.2 36.98, 73.04 38.83, 72.75 40.64 C72.45 42.45, 72 44.26, 71.41 46.01 C70.82 47.75, 70.07 49.47, 69.21 51.1 C68.34 52.73, 67.33 54.32, 66.21 55.8 C65.09 57.29, 63.83 58.7, 62.48 60 C61.13 61.29, 59.65 62.5, 58.11 63.58 C56.57 64.66, 54.91 65.63, 53.21 66.46 C51.51 67.29, 49.72 68.01, 47.91 68.57 C46.09 69.14, 44.21 69.57, 42.32 69.86 C40.44 70.15, 38.51 70.29, 36.6 70.29 C34.69 70.29, 32.76 70.15, 30.87 69.86 C28.99 69.57, 27.1 69.14, 25.29 68.57 C23.47 68.01, 21.68 67.29, 19.98 66.46 C18.28 65.63, 16.63 64.66, 15.09 63.58 C13.54 62.5, 12.07 61.29, 10.72 60 C9.37 58.7, 8.11 57.29, 6.99 55.8 C5.87 54.32, 4.86 52.73, 3.99 51.1 C3.12 49.47, 2.38 47.75, 1.79 46.01 C1.2 44.26, 0.75 42.45, 0.45 40.64 C0.15 38.83, 0 36.98, 0 35.15 C0 33.31, 0.15 31.46, 0.45 29.65 C0.75 27.84, 1.2 26.03, 1.79 24.29 C2.38 22.54, 3.12 20.82, 3.99 19.19 C4.86 17.56, 5.87 15.97, 6.99 14.49 C8.11 13.01, 9.37 11.59, 10.72 10.29 C12.07 9, 13.54 7.79, 15.09 6.71 C16.63 5.64, 18.28 4.66, 19.98 3.83 C21.68 3, 23.47 2.29, 25.29 1.72 C27.1 1.15, 28.99 0.72, 30.87 0.43 C32.76 0.15, 34.69 0, 36.6 0 C38.51 0, 40.44 0.15, 42.32 0.43 C44.21 0.72, 46.09 1.15, 47.91 1.72 C49.72 2.29, 51.51 3, 53.21 3.83 C54.91 4.66, 56.57 5.64, 58.11 6.71 C59.65 7.79, 61.13 9, 62.48 10.29 C63.83 11.59, 65.09 13.01, 66.21 14.49 C67.33 15.97, 68.34 17.56, 69.21 19.19 C70.07 20.82, 70.82 22.54, 71.41 24.29 C72 26.03, 72.45 27.84, 72.75 29.65 C73.04 31.46, 73.12 34.23, 73.2 35.15 C73.27 36.06, 73.27 34.23, 73.2 35.15" stroke="none" stroke-width="0" fill="#228be6"></path><path d="M73.2 35.15 C73.2 36.98, 73.04 38.83, 72.75 40.64 C72.45 42.45, 72 44.26, 71.41 46.01 C70.82 47.75, 70.07 49.47, 69.21 51.1 C68.34 52.73, 67.33 54.32, 66.21 55.8 C65.09 57.29, 63.83 58.7, 62.48 60 C61.13 61.29, 59.65 62.5, 58.11 63.58 C56.57 64.66, 54.91 65.63, 53.21 66.46 C51.51 67.29, 49.72 68.01, 47.91 68.57 C46.09 69.14, 44.21 69.57, 42.32 69.86 C40.44 70.15, 38.51 70.29, 36.6 70.29 C34.69 70.29, 32.76 70.15, 30.87 69.86 C28.99 69.57, 27.1 69.14, 25.29 68.57 C23.47 68.01, 21.68 67.29, 19.98 66.46 C18.28 65.63, 16.63 64.66, 15.09 63.58 C13.54 62.5, 12.07 61.29, 10.72 60 C9.37 58.7, 8.11 57.29, 6.99 55.8 C5.87 54.32, 4.86 52.73, 3.99 51.1 C3.12 49.47, 2.38 47.75, 1.79 46.01 C1.2 44.26, 0.75 42.45, 0.45 40.64 C0.15 38.83, 0 36.98, 0 35.15 C0 33.31, 0.15 31.46, 0.45 29.65 C0.75 27.84, 1.2 26.03, 1.79 24.29 C2.38 22.54, 3.12 20.82, 3.99 19.19 C4.86 17.56, 5.87 15.97, 6.99 14.49 C8.11 13.01, 9.37 11.59, 10.72 10.29 C12.07 9, 13.54 7.79, 15.09 6.71 C16.63 5.64, 18.28 4.66, 19.98 3.83 C21.68 3, 23.47 2.29, 25.29 1.72 C27.1 1.15, 28.99 0.72, 30.87 0.43 C32.76 0.15, 34.69 0, 36.6 0 C38.51 0, 40.44 0.15, 42.32 0.43 C44.21 0.72, 46.09 1.15, 47.91 1.72 C49.72 2.29, 51.51 3, 53.21 3.83 C54.91 4.66, 56.57 5.64, 58.11 6.71 C59.65 7.79, 61.13 9, 62.48 10.29 C63.83 11.59, 65.09 13.01, 66.21 14.49 C67.33 15.97, 68.34 17.56, 69.21 19.19 C70.07 20.82, 70.82 22.54, 71.41 24.29 C72 26.03, 72.45 27.84, 72.75 29.65 C73.04 31.46, 73.12 34.23, 73.2 35.15 C73.27 36.06, 73.27 34.23, 73.2 35.15" stroke="#228be6" stroke-width="1" fill="none"></path></g><g transform="translate(17.272220805227107 28.955251896610207) rotate(0 28.993988037109375 17.5)"><text x="28.993988037109375" y="0" font-family="Virgil, Segoe UI Emoji" font-size="28px" fill="#ffffff" text-anchor="middle" style="white-space: pre;" direction="ltr" dominant-baseline="text-before-edge">ESG</text></g></svg>